<?xml version="1.0" encoding="UTF-8" standalone="no"?>
<!-- Created with Inkscape (http://www.inkscape.org/) -->

<svg
   width="210mm"
   height="297mm"
   viewBox="0 0 210 297"
   version="1.1"
   id="svg5"
   xml:space="preserve"
   xmlns:inkscape="http://www.inkscape.org/namespaces/inkscape"
   xmlns:sodipodi="http://sodipodi.sourceforge.net/DTD/sodipodi-0.dtd"
   xmlns="http://www.w3.org/2000/svg"
   xmlns:svg="http://www.w3.org/2000/svg"><sodipodi:namedview
     id="namedview7"
     pagecolor="#ffffff"
     bordercolor="#000000"
     borderopacity="0.25"
     inkscape:showpageshadow="2"
     inkscape:pageopacity="0.0"
     inkscape:pagecheckerboard="0"
     inkscape:deskcolor="#d1d1d1"
     inkscape:document-units="mm"
     showgrid="false" /><defs
     id="defs2" /><g
     inkscape:label="Layer 1"
     inkscape:groupmode="layer"
     id="layer1"><g
       id="g218"
       transform="matrix(0.35277778,0,0,0.35277778,26.75036,28.433327)"><path
         fill="none"
         stroke-width="0.18"
         stroke-linecap="round"
         stroke-linejoin="round"
         stroke="#ffffff"
         stroke-opacity="1"
         stroke-miterlimit="10"
         d="M 132.83984,1.261719 H 33.839844 132.83984 V 80.820313 H 33.839844 V 1.261719 80.820313 H 132.83984 V 1.261719 H 33.839844 132.83984"
         transform="matrix(1,0,0,-1,0,86)"
         id="path182" /><path
         fill="none"
         stroke-width="0.72"
         stroke-linecap="round"
         stroke-linejoin="round"
         stroke="#000000"
         stroke-opacity="1"
         stroke-miterlimit="10"
         d="M 41.578125,25.921875 V 15.480469 l 9,-5.039063 9,5.039063 v 10.441406 l -9,5.21875 -9,-5.21875"
         transform="matrix(1,0,0,-1,0,86)"
         id="path184" /><path
         fill="none"
         stroke-width="0.72"
         stroke-linecap="round"
         stroke-linejoin="round"
         stroke="#000000"
         stroke-opacity="1"
         stroke-miterlimit="10"
         d="M 78.839844,4.320313 50.761719,4.140625"
         transform="matrix(1,0,0,-1,0,86)"
         id="path186" /><path
         fill="none"
         stroke-width="0.72"
         stroke-linecap="round"
         stroke-linejoin="round"
         stroke="#000000"
         stroke-opacity="1"
         stroke-miterlimit="10"
         d="M 16.649971,0.00207732 C 16.650737,6.589269 12.762578,12.559137 6.739042,15.225297 0.709991,17.891771 -6.320965,16.753017 -11.195562,12.324011"
         transform="matrix(-0.74608,-0.66586,-0.66586,0.74608,50.49,65.21)"
         id="path188" /><path
         fill="none"
         stroke-width="0.72"
         stroke-linecap="round"
         stroke-linejoin="round"
         stroke="#000000"
         stroke-opacity="1"
         stroke-miterlimit="10"
         d="M 38.160156,31.859375 81.71875,80.640625"
         transform="matrix(1,0,0,-1,0,86)"
         id="path190" /><path
         fill="none"
         stroke-width="0.72"
         stroke-linecap="round"
         stroke-linejoin="round"
         stroke="#000000"
         stroke-opacity="1"
         stroke-miterlimit="10"
         d="M 0.631895,0.00171381 C 0.630713,0.245905 0.485647,0.472529 0.262199,0.57505 0.0343937,0.674175 -0.230115,0.636153 -0.415541,0.474166"
         transform="matrix(0.99239,-0.12317,-0.12317,-0.99239,82.17,5.81)"
         id="path192" /><path
         fill="none"
         stroke-width="0.72"
         stroke-linecap="round"
         stroke-linejoin="round"
         stroke="#000000"
         stroke-opacity="1"
         stroke-miterlimit="10"
         d="m 82.980469,80.28125 2.699219,-11.339844 5.398437,-10.261718 7.742188,-8.640625 9.539067,-6.660157 10.80078,-4.140625 11.51953,-1.4375"
         transform="matrix(1,0,0,-1,0,86)"
         id="path194" /><path
         fill="none"
         stroke-width="0.72"
         stroke-linecap="round"
         stroke-linejoin="round"
         stroke="#000000"
         stroke-opacity="1"
         stroke-miterlimit="10"
         d="M 0.810412,-0.00150741 C 0.80947,0.421522 0.486217,0.773713 0.0657066,0.807837"
         transform="matrix(0.99743,-0.07165,-0.07165,-0.99743,130.59,48.83)"
         id="path196" /><path
         fill="none"
         stroke-width="0.72"
         stroke-linecap="round"
         stroke-linejoin="round"
         stroke="#000000"
         stroke-opacity="1"
         stroke-miterlimit="10"
         d="m 84.601563,22.410156 c 0,3.328125 -2.703125,6.03125 -6.03125,6.03125 -3.332032,0 -6.03125,-2.699218 -6.03125,-6.03125 0,-3.332031 2.699218,-6.03125 6.03125,-6.03125 3.328125,0 6.03125,2.699219 6.03125,6.03125"
         transform="matrix(1,0,0,-1,0,86)"
         id="path198" /><path
         fill="none"
         stroke-width="0.72"
         stroke-linecap="round"
         stroke-linejoin="round"
         stroke="#000000"
         stroke-opacity="1"
         stroke-miterlimit="10"
         d="m 131.39844,37.078125 -0.53907,-0.898437 -1.07812,-1.078125 -3.96094,-2.339844 L 117,28.621094 l -3.60156,-1.261719 -2.51953,-1.078125 -3.59766,-0.902344 -5.58203,-1.617187 -4.679689,-2.160156 -3.238281,-3.242188 -2.160156,-5.21875 -1.082031,-3.0625 L 88.738281,7.378906 85.320313,5.21875 82.441406,4.5 78.839844,4.320313"
         transform="matrix(1,0,0,-1,0,86)"
         id="path200" /></g></g></svg>
