<?xml version="1.0" encoding="UTF-8" standalone="no"?>
<!-- Created with Inkscape (http://www.inkscape.org/) -->

<svg
   width="210mm"
   height="297mm"
   viewBox="0 0 210 297"
   version="1.1"
   id="svg5"
   xml:space="preserve"
   inkscape:export-filename="2x - black - outer-tracking-wheel.svg"
   inkscape:export-xdpi="96"
   inkscape:export-ydpi="96"
   xmlns:inkscape="http://www.inkscape.org/namespaces/inkscape"
   xmlns:sodipodi="http://sodipodi.sourceforge.net/DTD/sodipodi-0.dtd"
   xmlns="http://www.w3.org/2000/svg"
   xmlns:svg="http://www.w3.org/2000/svg"><sodipodi:namedview
     id="namedview7"
     pagecolor="#ffffff"
     bordercolor="#000000"
     borderopacity="0.25"
     inkscape:showpageshadow="2"
     inkscape:pageopacity="0.0"
     inkscape:pagecheckerboard="0"
     inkscape:deskcolor="#d1d1d1"
     inkscape:document-units="mm"
     showgrid="false" /><defs
     id="defs2" /><g
     inkscape:label="Layer 1"
     inkscape:groupmode="layer"
     id="layer1"><g
       id="g466"
       transform="matrix(0.35277778,0,0,0.35277778,-23.643387,-3.5732475)"><g
         id="g707"
         transform="translate(16.332857,21.387782)"><path
           fill="none"
           stroke-width="0.18"
           stroke-linecap="round"
           stroke-linejoin="round"
           stroke="#ffffff"
           stroke-opacity="1"
           stroke-miterlimit="10"
           d="M 282.05859,0 H 73.441406 282.05859 V 186.66016 H 73.441406 V 0 186.66016 H 282.05859 V 0 H 73.441406 282.05859"
           transform="matrix(1,0,0,-1,0,187)"
           id="path656" /><path
           fill="none"
           stroke-width="0.72"
           stroke-linecap="round"
           stroke-linejoin="round"
           stroke="#000000"
           stroke-opacity="1"
           stroke-miterlimit="10"
           d="m 255.60156,88.199219 -11.33984,8.820312"
           transform="matrix(1,0,0,-1,0,187)"
           id="path658" /><path
           fill="none"
           stroke-width="0.72"
           stroke-linecap="round"
           stroke-linejoin="round"
           stroke="#000000"
           stroke-opacity="1"
           stroke-miterlimit="10"
           d="M 1.88932,-0.00188818 C 1.890518,1.043761 1.044762,1.889118 -8.86784e-4,1.890315"
           transform="matrix(0.61923,-0.78521,-0.78521,-0.61923,243.27,91.33)"
           id="path660" /><path
           fill="none"
           stroke-width="0.72"
           stroke-linecap="round"
           stroke-linejoin="round"
           stroke="#000000"
           stroke-opacity="1"
           stroke-miterlimit="10"
           d="M 241.73828,96.839844 232.92187,85.5"
           transform="matrix(1,0,0,-1,0,187)"
           id="path662" /><path
           fill="none"
           stroke-width="0.72"
           stroke-linecap="round"
           stroke-linejoin="round"
           stroke="#000000"
           stroke-opacity="1"
           stroke-miterlimit="10"
           d="M 1.712256,-4.38972e-4 C 1.709688,0.942745 0.94393,1.711895 7.46112e-4,1.709327"
           transform="matrix(-0.78521,-0.61923,-0.61923,0.78521,234.26999,102.67)"
           id="path664" /><path
           fill="none"
           stroke-width="0.72"
           stroke-linecap="round"
           stroke-linejoin="round"
           stroke="#000000"
           stroke-opacity="1"
           stroke-miterlimit="10"
           d="m 233.28125,82.980469 11.16016,-9"
           transform="matrix(1,0,0,-1,0,187)"
           id="path666" /><path
           fill="none"
           stroke-width="0.72"
           stroke-linecap="round"
           stroke-linejoin="round"
           stroke="#000000"
           stroke-opacity="1"
           stroke-miterlimit="10"
           d="M 1.709675,-6.83143e-4 C 1.710175,0.944919 0.943768,1.708584 0.00123275,1.711502"
           transform="matrix(-0.61923,0.78521,0.78521,0.61923,245.61,111.49)"
           id="path668" /><path
           fill="none"
           stroke-width="0.72"
           stroke-linecap="round"
           stroke-linejoin="round"
           stroke="#000000"
           stroke-opacity="1"
           stroke-miterlimit="10"
           d="m 246.96094,74.339844 9,11.339844"
           transform="matrix(1,0,0,-1,0,187)"
           id="path670" /><path
           fill="none"
           stroke-width="0.72"
           stroke-linecap="round"
           stroke-linejoin="round"
           stroke="#000000"
           stroke-opacity="1"
           stroke-miterlimit="10"
           d="M 1.70918,0.00171179 C 1.712098,0.944247 0.943272,1.710979 8.865e-5,1.708411"
           transform="matrix(0.78521,0.61923,0.61923,-0.78521,254.61,100.15)"
           id="path672" /><path
           fill="none"
           stroke-width="0.72"
           stroke-linecap="round"
           stroke-linejoin="round"
           stroke="#000000"
           stroke-opacity="1"
           stroke-miterlimit="10"
           d="m 83.699219,93.238281 1.082031,-5.9375 1.796875,-5.402343 3.0625,-5.578125 4.320313,-5.941407 5.398437,-6.839843 6.839845,-7.558594 7.92187,-8.820313 8.82032,-9.359375 8.63671,-9 3.96094,-3.601562 3.60156,-3.058594 3.0586,-2.160156 2.69922,-1.621094 4.5,-1.4375 4.67968,-0.363281 h 6.66016 l 4.68359,0.179687 h 13.13672 l 7.92188,0.183594 h 24.48047 l 6.30078,-0.183594 5.21875,-0.179687 h 10.62109 l 11.69922,2.160156 4.85938,1.800781 3.78125,2.519532 3.95703,3.78125 3.78125,5.039062 3.24218,6.660156 2.51954,8.101563 1.61718,9.539062 0.90235,10.980469 0.71875,12.417969 1.26172,13.679687 -1.26172,13.683599 -0.71875,12.41796 -0.90235,11.16016 -1.61718,9.53906 -2.51954,8.10156 -3.24218,6.66016 -3.78125,5.03906 -3.95703,3.60157 -3.78125,2.51953 -4.85938,1.80078 -11.69922,2.16015 -6.48047,0.17969 -4.14062,-0.17969 -5.21875,-0.18359 h -38.70313 l -7.19922,0.18359 h -17.28125 l -4.67968,-0.18359 -4.5,-1.61719 -2.69922,-1.4414 -3.0586,-2.33985 -3.60156,-2.8789 -3.96094,-3.78125 -8.63671,-8.82032 -8.82032,-9.53906 -7.92187,-8.64062 -6.839845,-7.73828 -5.398437,-6.66016 -4.320313,-5.94141 -3.0625,-5.57812 -1.796875,-5.582032 -1.082031,-5.941407"
           transform="matrix(1,0,0,-1,0,187)"
           id="path674" /><path
           fill="none"
           stroke-width="0.72"
           stroke-linecap="round"
           stroke-linejoin="round"
           stroke="#000000"
           stroke-opacity="1"
           stroke-miterlimit="10"
           d="m 178.37891,85.589844 c 0,3.332031 -2.69922,6.03125 -6.02735,6.03125 -3.33203,0 -6.03125,-2.699219 -6.03125,-6.03125 0,-3.328125 2.69922,-6.03125 6.02735,-6.03125 3.33203,0 6.03125,2.699219 6.03125,6.03125"
           transform="matrix(1,0,0,-1,0,187)"
           id="path676" /><path
           fill="none"
           stroke-width="0.72"
           stroke-linecap="round"
           stroke-linejoin="round"
           stroke="#000000"
           stroke-opacity="1"
           stroke-miterlimit="10"
           d="m 143.82031,38.070313 c 0,3.328125 -2.69922,6.03125 -6.03125,6.03125 -3.32812,0 -6.02734,-2.699219 -6.02734,-6.03125 0,-3.332032 2.69922,-6.03125 6.02734,-6.03125 3.33203,0 6.03125,2.699218 6.03125,6.03125"
           transform="matrix(1,0,0,-1,0,187)"
           id="path678" /><path
           fill="none"
           stroke-width="0.72"
           stroke-linecap="round"
           stroke-linejoin="round"
           stroke="#000000"
           stroke-opacity="1"
           stroke-miterlimit="10"
           d="m 143.82031,148.41016 c 0,3.32812 -2.69922,6.03125 -6.03125,6.03125 -3.32812,0 -6.02734,-2.69922 -6.02734,-6.03125 0,-3.33204 2.69922,-6.03125 6.02734,-6.03125 3.33203,0 6.03125,2.69921 6.03125,6.03125"
           transform="matrix(1,0,0,-1,0,187)"
           id="path680" /><path
           fill="none"
           stroke-width="0.72"
           stroke-linecap="round"
           stroke-linejoin="round"
           stroke="#000000"
           stroke-opacity="1"
           stroke-miterlimit="10"
           d="m 115.01953,68.851563 c 0,3.328125 -2.69922,6.027343 -6.03125,6.027343 -3.32812,0 -6.02734,-2.699218 -6.02734,-6.027343 0,-3.332032 2.69922,-6.03125 6.02734,-6.03125 3.33203,0 6.03125,2.699218 6.03125,6.027343"
           transform="matrix(1,0,0,-1,0,187)"
           id="path682" /><path
           fill="none"
           stroke-width="0.72"
           stroke-linecap="round"
           stroke-linejoin="round"
           stroke="#000000"
           stroke-opacity="1"
           stroke-miterlimit="10"
           d="m 115.01953,117.80859 c 0,3.33204 -2.69922,6.03125 -6.03125,6.03125 -3.32812,0 -6.02734,-2.69921 -6.02734,-6.03125 0,-3.32812 2.69922,-6.02734 6.02734,-6.02734 3.33203,0 6.03125,2.69922 6.03125,6.02734"
           transform="matrix(1,0,0,-1,0,187)"
           id="path684" /></g></g></g></svg>
