<?xml version="1.0" encoding="UTF-8" standalone="no"?>
<!-- Created with Inkscape (http://www.inkscape.org/) -->

<svg
   width="210mm"
   height="297mm"
   viewBox="0 0 210 297"
   version="1.1"
   id="svg5"
   xml:space="preserve"
   inkscape:export-filename="2x - white - first-stage.svg"
   inkscape:export-xdpi="96"
   inkscape:export-ydpi="96"
   xmlns:inkscape="http://www.inkscape.org/namespaces/inkscape"
   xmlns:sodipodi="http://sodipodi.sourceforge.net/DTD/sodipodi-0.dtd"
   xmlns="http://www.w3.org/2000/svg"
   xmlns:svg="http://www.w3.org/2000/svg"><sodipodi:namedview
     id="namedview7"
     pagecolor="#ffffff"
     bordercolor="#000000"
     borderopacity="0.25"
     inkscape:showpageshadow="2"
     inkscape:pageopacity="0.0"
     inkscape:pagecheckerboard="0"
     inkscape:deskcolor="#d1d1d1"
     inkscape:document-units="mm"
     showgrid="false" /><defs
     id="defs2" /><g
     inkscape:label="Layer 1"
     inkscape:groupmode="layer"
     id="layer1"><g
       id="g466"
       transform="matrix(0.35277778,0,0,0.35277778,-23.643387,-3.5732475)"><g
         id="g1124"
         transform="translate(-211.33154,-34.698881)"><g
           id="g1634"
           transform="translate(167.06508,32.43912)"><path
             fill="none"
             stroke-width="0.72"
             stroke-linecap="round"
             stroke-linejoin="round"
             stroke="#000000"
             stroke-opacity="1"
             stroke-miterlimit="10"
             d="m 190.26172,164.51953 -18.90235,21.60156"
             transform="matrix(1,0,0,-1,0,271)"
             id="path1501" /><path
             fill="none"
             stroke-width="0.72"
             stroke-linecap="round"
             stroke-linejoin="round"
             stroke="#000000"
             stroke-opacity="1"
             stroke-miterlimit="10"
             d="M 6.0313,8.11878e-6 C 6.031607,3.330021 3.329961,6.031653 -5.14971e-5,6.031961 -3.330064,6.032269 -6.031697,3.330623 -6.032004,6.09996e-4"
             transform="matrix(0.75186,-0.65932,-0.65932,-0.75186,166.77,88.75)"
             id="path1503" /><path
             fill="none"
             stroke-width="0.72"
             stroke-linecap="round"
             stroke-linejoin="round"
             stroke="#000000"
             stroke-opacity="1"
             stroke-miterlimit="10"
             d="m 162.35937,178.37891 18.90235,-21.77735"
             transform="matrix(1,0,0,-1,0,271)"
             id="path1505" /><path
             fill="none"
             stroke-width="0.72"
             stroke-linecap="round"
             stroke-linejoin="round"
             stroke="#000000"
             stroke-opacity="1"
             stroke-miterlimit="10"
             d="M 5.848681,0.00129753 C 5.849686,3.231728 3.230753,5.849984 3.22568e-4,5.850988 -3.232683,5.849055 -5.850939,3.230123 -5.851943,-3.07944e-4"
             transform="matrix(-0.75192,0.65925,0.65925,0.75192,185.85001,110.53)"
             id="path1507" /><path
             fill="none"
             stroke-width="0.72"
             stroke-linecap="round"
             stroke-linejoin="round"
             stroke="#000000"
             stroke-opacity="1"
             stroke-miterlimit="10"
             d="m 216.53906,225.71875 18.90235,-21.59766"
             transform="matrix(1,0,0,-1,0,271)"
             id="path1509" /><path
             fill="none"
             stroke-width="0.72"
             stroke-linecap="round"
             stroke-linejoin="round"
             stroke="#000000"
             stroke-opacity="1"
             stroke-miterlimit="10"
             d="M 5.848984,0.00164248 C 5.849988,3.232073 3.231056,5.850329 6.25001e-4,5.851333 -3.232381,5.8494 -5.850636,3.230468 -5.851641,3.7001e-5"
             transform="matrix(-0.75192,0.65925,0.65925,0.75192,239.85001,63.01001)"
             id="path1511" /><path
             fill="none"
             stroke-width="0.72"
             stroke-linecap="round"
             stroke-linejoin="round"
             stroke="#000000"
             stroke-opacity="1"
             stroke-miterlimit="10"
             d="m 244.44141,211.85937 -19.08204,21.78125"
             transform="matrix(1,0,0,-1,0,271)"
             id="path1513" /><path
             fill="none"
             stroke-width="0.72"
             stroke-linecap="round"
             stroke-linejoin="round"
             stroke="#000000"
             stroke-opacity="1"
             stroke-miterlimit="10"
             d="M 5.850696,0.00190865 C 5.849423,3.229399 3.230735,5.847893 3.07707e-4,5.849195 -3.230119,5.850497 -5.848614,3.231809 -5.849916,0.00138185"
             transform="matrix(0.75186,-0.65932,-0.65932,-0.75186,220.95001,41.23001)"
             id="path1515" /><path
             fill="none"
             stroke-width="0.72"
             stroke-linecap="round"
             stroke-linejoin="round"
             stroke="#000000"
             stroke-opacity="1"
             stroke-miterlimit="10"
             d="m 226.26172,196.19922 -18.72266,21.60156"
             transform="matrix(1,0,0,-1,0,271)"
             id="path1517" /><path
             fill="none"
             stroke-width="0.72"
             stroke-linecap="round"
             stroke-linejoin="round"
             stroke="#000000"
             stroke-opacity="1"
             stroke-miterlimit="10"
             d="M 17.907562,-1.26129e-4 C 17.909479,9.890326 9.890436,17.90951 -1.66626e-5,17.911428 -9.893045,17.910408 -17.912228,9.891365 -17.908633,0.0012738"
             transform="matrix(0.75186,-0.65932,-0.65932,-0.75186,193.95,65.17)"
             id="path1519" /><path
             fill="none"
             stroke-width="0.72"
             stroke-linecap="round"
             stroke-linejoin="round"
             stroke="#000000"
             stroke-opacity="1"
             stroke-miterlimit="10"
             d="m 180.35937,194.03906 18.90235,-21.59765"
             transform="matrix(1,0,0,-1,0,271)"
             id="path1521" /><path
             fill="none"
             stroke-width="0.72"
             stroke-linecap="round"
             stroke-linejoin="round"
             stroke="#000000"
             stroke-opacity="1"
             stroke-miterlimit="10"
             d="M 18.091129,-0.00126585 C 18.088194,9.991358 9.991312,18.087791 -0.00167373,18.090368 -9.991722,18.090371 -18.09073,9.990551 -18.090733,5.02642e-4"
             transform="matrix(-0.75192,0.65925,0.65925,0.75192,212.85001,86.59)"
             id="path1523" /><path
             fill="none"
             stroke-width="0.72"
             stroke-linecap="round"
             stroke-linejoin="round"
             stroke="#000000"
             stroke-opacity="1"
             stroke-miterlimit="10"
             d="m 162.35937,178.37891 18.90235,-21.77735"
             transform="matrix(1,0,0,-1,0,271)"
             id="path1527" /><path
             fill="none"
             stroke-width="0.72"
             stroke-linecap="round"
             stroke-linejoin="round"
             stroke="#000000"
             stroke-opacity="1"
             stroke-miterlimit="10"
             d="M 6.02874,-7.18689e-4 C 6.028741,3.329297 3.32978,6.028108 -2.3642e-4,6.028109 -3.330253,6.02811 -6.029063,3.329149 -6.029064,-8.66932e-4"
             transform="matrix(-0.75192,0.65925,0.65925,0.75192,185.85001,110.53)"
             id="path1529" /><path
             fill="none"
             stroke-width="0.72"
             stroke-linecap="round"
             stroke-linejoin="round"
             stroke="#000000"
             stroke-opacity="1"
             stroke-miterlimit="10"
             d="m 190.26172,164.51953 -18.90235,21.60156"
             transform="matrix(1,0,0,-1,0,271)"
             id="path1531" /><path
             fill="none"
             stroke-width="0.72"
             stroke-linecap="round"
             stroke-linejoin="round"
             stroke="#000000"
             stroke-opacity="1"
             stroke-miterlimit="10"
             d="m 216.53906,225.71875 18.90235,-21.59766"
             transform="matrix(1,0,0,-1,0,271)"
             id="path1533" /><path
             fill="none"
             stroke-width="0.72"
             stroke-linecap="round"
             stroke-linejoin="round"
             stroke="#000000"
             stroke-opacity="1"
             stroke-miterlimit="10"
             d="M 5.848984,0.00164248 C 5.849988,3.232073 3.231056,5.850329 6.25001e-4,5.851333 -3.232381,5.8494 -5.850636,3.230468 -5.851641,3.7001e-5"
             transform="matrix(-0.75192,0.65925,0.65925,0.75192,239.85001,63.01001)"
             id="path1535" /><path
             fill="none"
             stroke-width="0.72"
             stroke-linecap="round"
             stroke-linejoin="round"
             stroke="#000000"
             stroke-opacity="1"
             stroke-miterlimit="10"
             d="m 244.44141,211.85937 -19.08204,21.78125"
             transform="matrix(1,0,0,-1,0,271)"
             id="path1537" /><path
             fill="none"
             stroke-width="0.72"
             stroke-linecap="round"
             stroke-linejoin="round"
             stroke="#000000"
             stroke-opacity="1"
             stroke-miterlimit="10"
             d="m 180.35937,194.03906 18.90235,-21.59765"
             transform="matrix(1,0,0,-1,0,271)"
             id="path1539" /><path
             fill="none"
             stroke-width="0.72"
             stroke-linecap="round"
             stroke-linejoin="round"
             stroke="#000000"
             stroke-opacity="1"
             stroke-miterlimit="10"
             d="M 18.091129,-0.00126585 C 18.088194,9.991358 9.991312,18.087791 -0.00167373,18.090368 -9.991722,18.090371 -18.09073,9.990551 -18.090733,5.02642e-4"
             transform="matrix(-0.75192,0.65925,0.65925,0.75192,212.85001,86.59)"
             id="path1541" /><path
             fill="none"
             stroke-width="0.72"
             stroke-linecap="round"
             stroke-linejoin="round"
             stroke="#000000"
             stroke-opacity="1"
             stroke-miterlimit="10"
             d="m 226.26172,196.19922 -18.72266,21.60156"
             transform="matrix(1,0,0,-1,0,271)"
             id="path1543" /><path
             fill="none"
             stroke-width="0.72"
             stroke-linecap="round"
             stroke-linejoin="round"
             stroke="#000000"
             stroke-opacity="1"
             stroke-miterlimit="10"
             d="m 273.42187,155.42969 c 0,3.33203 -2.70312,6.03125 -6.03125,6.03125 -3.33203,0 -6.03125,-2.69922 -6.03125,-6.03125 0,-3.32813 2.69922,-6.03125 6.03125,-6.03125 3.32813,0 6.02735,2.69922 6.03125,6.03125"
             transform="matrix(1,0,0,-1,0,271)"
             id="path1545" /><path
             fill="none"
             stroke-width="0.72"
             stroke-linecap="round"
             stroke-linejoin="round"
             stroke="#000000"
             stroke-opacity="1"
             stroke-miterlimit="10"
             d="m 273.42187,191.42969 c 0,3.33203 -2.70312,6.03125 -6.03125,6.03125 -3.33203,0 -6.03125,-2.69922 -6.03125,-6.03125 0,-3.32813 2.69922,-6.03125 6.03125,-6.03125 3.32813,0 6.02735,2.69922 6.03125,6.03125"
             transform="matrix(1,0,0,-1,0,271)"
             id="path1547" /><path
             fill="none"
             stroke-width="0.72"
             stroke-linecap="round"
             stroke-linejoin="round"
             stroke="#000000"
             stroke-opacity="1"
             stroke-miterlimit="10"
             d="m 189.53906,34.46875 c 0,9.890625 -8.01562,17.910156 -17.91015,17.910156 -9.89063,0 -17.91016,-8.015625 -17.91016,-17.90625 0,-9.894531 8.01953,-17.910156 17.91016,-17.914062 9.89062,0 17.91015,8.019531 17.91015,17.910156"
             transform="matrix(1,0,0,-1,0,271)"
             id="path1563" /><path
             fill="none"
             stroke-width="0.72"
             stroke-linecap="round"
             stroke-linejoin="round"
             stroke="#000000"
             stroke-opacity="1"
             stroke-miterlimit="10"
             d="m 240.12109,128.87891 -7.74218,-6.30078 7.74218,6.30078 8.45703,4.85937 8.10157,3.96094 7.19922,3.0625 6.12109,2.51953 4.5,2.16016 3.42187,1.79687 2.15625,1.80078 1.98047,3.42188 0.17969,3.96093 -0.71875,9.35938 1.26172,9.35937 1.07812,4.14063 0.17969,4.32031 -0.53906,2.33985 -1.26172,2.69921 -2.16016,3.23829 -2.8789,3.96093 -3.96094,4.5 -4.85937,5.03907 -12.0586,11.33984 -13.14062,11.16016 -6.48047,4.85937 -6.1211,4.14063 -5.75781,3.24218 -5.21875,2.16016 -4.86328,1.4375 -4.85937,0.35937 -4.5,-0.35937 -4.67969,-1.25781 -9.35938,-4.32032 -9.89843,-6.66015 -10.26172,-7.92188 -19.98047,-17.82031 -7.73828,-8.63672 -3.0625,-3.96094 -1.97657,-3.96093 -0.90234,-3.78125 0.17969,-3.59766 1.62109,-3.78125 2.69922,-3.78125 5.94141,-8.27734 0.89843,-4.32032 -0.89843,-2.33984 -2.16016,-2.33984 -2.33984,-3.42188 -0.35938,-4.67969 0.71875,-5.39843 1.44141,-6.1211 2.8789,-12.96093 1.07813,-13.32032 -0.53906,-6.48046 -1.25782,-6.117192 -4.14062,-12.0625 -10.44141,-21.597657 -3.96093,-9.722656 -2.51953,-9.179687 -0.53907,-8.457032 1.07813,-7.5625 2.52343,-6.480468 4.13672,-5.578125 5.40235,-4.320313 7.01953,-3.421875 8.46094,-2.339844 9.89843,-1.617187 L 175.5,5.21875 l 11.87891,0.359375 11.33984,1.621094 5.22266,1.441406 4.67968,1.980469 4.14063,2.519531 3.05859,3.238281 2.51953,3.78125 1.44141,4.320313 0.71875,5.039062 -0.17969,5.582032 -1.98047,12.597656 -2.8789,13.859375 -1.98047,14.222656 -0.17969,7.019531 0.53906,6.839844 1.44141,6.480469 2.33984,6.117186 L 220.5,108 l 3.60156,5.39844 8.27735,9.17969 -8.27735,-9.17969"
             transform="matrix(1,0,0,-1,0,271)"
             id="path1565" /><path
             fill="none"
             stroke-width="0.72"
             stroke-linecap="round"
             stroke-linejoin="round"
             stroke="#000000"
             stroke-opacity="1"
             stroke-miterlimit="10"
             d="m 237.42187,143.55078 c 0,3.32813 -2.70312,6.02734 -6.03125,6.02734 -3.33203,0.004 -6.03125,-2.69921 -6.03125,-6.02734 0,-3.33203 2.69922,-6.03125 6.03125,-6.03125 3.32813,0 6.02735,2.69922 6.03125,6.03125"
             transform="matrix(1,0,0,-1,0,271)"
             id="path1567" /><path
             fill="none"
             stroke-width="0.72"
             stroke-linecap="round"
             stroke-linejoin="round"
             stroke="#000000"
             stroke-opacity="1"
             stroke-miterlimit="10"
             d="m 162.35937,147.51172 c 0,3.32812 -2.69921,6.02734 -6.02734,6.02734 -3.33203,0 -6.03125,-2.69922 -6.03125,-6.02734 0,-3.33203 2.69922,-6.03125 6.02734,-6.03125 3.33204,0 6.03125,2.69922 6.03125,6.02734"
             transform="matrix(1,0,0,-1,0,271)"
             id="path1569" /><path
             fill="none"
             stroke-width="0.72"
             stroke-linecap="round"
             stroke-linejoin="round"
             stroke="#000000"
             stroke-opacity="1"
             stroke-miterlimit="10"
             d="m 213.66016,33.570313 c 0,3.328125 -2.69922,6.03125 -6.03125,6.03125 -3.32813,0 -6.02735,-2.699219 -6.02735,-6.03125 0,-3.332032 2.69922,-6.03125 6.02735,-6.03125 3.33203,0 6.03125,2.699218 6.03125,6.03125"
             transform="matrix(1,0,0,-1,0,271)"
             id="path1571" /><path
             fill="none"
             stroke-width="0.72"
             stroke-linecap="round"
             stroke-linejoin="round"
             stroke="#000000"
             stroke-opacity="1"
             stroke-miterlimit="10"
             d="m 141.83984,35.550781 c 0,3.328125 -2.69922,6.027344 -6.03125,6.027344 -3.32812,0.0039 -6.02734,-2.699219 -6.02734,-6.027344 0,-3.332031 2.69922,-6.03125 6.02734,-6.03125 3.33203,0 6.03125,2.699219 6.03125,6.03125"
             transform="matrix(1,0,0,-1,0,271)"
             id="path1573" /></g></g></g></g></svg>
