<?xml version="1.0" encoding="UTF-8" standalone="no"?>
<!-- Created with Inkscape (http://www.inkscape.org/) -->

<svg
   width="210mm"
   height="297mm"
   viewBox="0 0 210 297"
   version="1.1"
   id="svg5"
   xml:space="preserve"
   inkscape:export-filename="2x - black - inner-tracking-wheel.svg"
   inkscape:export-xdpi="96"
   inkscape:export-ydpi="96"
   xmlns:inkscape="http://www.inkscape.org/namespaces/inkscape"
   xmlns:sodipodi="http://sodipodi.sourceforge.net/DTD/sodipodi-0.dtd"
   xmlns="http://www.w3.org/2000/svg"
   xmlns:svg="http://www.w3.org/2000/svg"><sodipodi:namedview
     id="namedview7"
     pagecolor="#ffffff"
     bordercolor="#000000"
     borderopacity="0.25"
     inkscape:showpageshadow="2"
     inkscape:pageopacity="0.0"
     inkscape:pagecheckerboard="0"
     inkscape:deskcolor="#d1d1d1"
     inkscape:document-units="mm"
     showgrid="false" /><defs
     id="defs2" /><g
     inkscape:label="Layer 1"
     inkscape:groupmode="layer"
     id="layer1"><g
       id="g466"
       transform="matrix(0.35277778,0,0,0.35277778,-23.643387,-3.5732475)"><g
         id="g936"
         transform="translate(-36.692916,27.69672)"><path
           fill="none"
           stroke-width="0.18"
           stroke-linecap="round"
           stroke-linejoin="round"
           stroke="#ffffff"
           stroke-opacity="1"
           stroke-miterlimit="10"
           d="m 126.53906,1.261719 h 153 V 212.03906 1.261719 h -153 V 212.03906 1.261719"
           transform="matrix(1,0,0,-1,0,212)"
           id="path846" /><path
           fill="none"
           stroke-width="0.72"
           stroke-linecap="round"
           stroke-linejoin="round"
           stroke="#000000"
           stroke-opacity="1"
           stroke-miterlimit="10"
           d="M 265.32031,113.21875 199.26172,8.101563"
           transform="matrix(1,0,0,-1,0,212)"
           id="path848" /><path
           fill="none"
           stroke-width="0.72"
           stroke-linecap="round"
           stroke-linejoin="round"
           stroke="#000000"
           stroke-opacity="1"
           stroke-miterlimit="10"
           d="M 14.308833,0.00224913 C 14.311852,5.459484 11.203934,10.442613 6.302054,12.846466 1.400174,15.250318 -4.441683,14.657917 -8.758268,11.314043"
           transform="matrix(-0.93893,0.3441,0.3441,0.93893,187.11,196.25)"
           id="path850" /><path
           fill="none"
           stroke-width="0.72"
           stroke-linecap="round"
           stroke-linejoin="round"
           stroke="#000000"
           stroke-opacity="1"
           stroke-miterlimit="10"
           d="M 173.51953,10.800781 127.44141,136.80078"
           transform="matrix(1,0,0,-1,0,212)"
           id="path852" /><path
           fill="none"
           stroke-width="0.72"
           stroke-linecap="round"
           stroke-linejoin="round"
           stroke="#000000"
           stroke-opacity="1"
           stroke-miterlimit="10"
           d="M 14.310947,0.00143109 C 14.310779,1.681119 14.013738,3.349058 13.435455,4.927125"
           transform="matrix(-1,-1e-4,-1e-4,1,140.85001,70.25)"
           id="path854" /><path
           fill="none"
           stroke-width="0.72"
           stroke-linecap="round"
           stroke-linejoin="round"
           stroke="#000000"
           stroke-opacity="1"
           stroke-miterlimit="10"
           d="m 126.53906,141.66016 v 36"
           transform="matrix(1,0,0,-1,0,212)"
           id="path856" /><path
           fill="none"
           stroke-width="0.72"
           stroke-linecap="round"
           stroke-linejoin="round"
           stroke="#000000"
           stroke-opacity="1"
           stroke-miterlimit="10"
           d="M 14.309345,0.00193165 C 14.309086,5.896519 10.692243,11.192366 5.196412,13.334133"
           transform="matrix(-0.36311,-0.93175,-0.93175,0.36311,140.85001,34.25)"
           id="path858" /><path
           fill="none"
           stroke-width="0.72"
           stroke-linecap="round"
           stroke-linejoin="round"
           stroke="#000000"
           stroke-opacity="1"
           stroke-miterlimit="10"
           d="m 135.71875,191.16016 46.08203,18"
           transform="matrix(1,0,0,-1,0,212)"
           id="path860" /><path
           fill="none"
           stroke-width="0.72"
           stroke-linecap="round"
           stroke-linejoin="round"
           stroke="#000000"
           stroke-opacity="1"
           stroke-miterlimit="10"
           d="M 1.891488,-3.31629e-4 C 1.889148,1.042602 1.045391,1.88931 -0.00177826,1.890516"
           transform="matrix(0.99609,0.08838,0.08838,-0.99609,195.03,45.77)"
           id="path862" /><path
           fill="none"
           stroke-width="0.72"
           stroke-linecap="round"
           stroke-linejoin="round"
           stroke="#000000"
           stroke-opacity="1"
           stroke-miterlimit="10"
           d="m 195.12109,167.94141 -14.40234,1.4375"
           transform="matrix(1,0,0,-1,0,212)"
           id="path864" /><path
           fill="none"
           stroke-width="0.72"
           stroke-linecap="round"
           stroke-linejoin="round"
           stroke="#000000"
           stroke-opacity="1"
           stroke-miterlimit="10"
           d="M 1.708145,-7.60412e-4 C 1.71064,0.944553 0.944594,1.71195 -3.742e-4,1.710554"
           transform="matrix(0.08828,-0.9961,-0.9961,-0.08828,180.45001,44.51001)"
           id="path866" /><path
           fill="none"
           stroke-width="0.72"
           stroke-linecap="round"
           stroke-linejoin="round"
           stroke="#000000"
           stroke-opacity="1"
           stroke-miterlimit="10"
           d="m 178.73828,167.57812 -1.25781,-14.39843"
           transform="matrix(1,0,0,-1,0,212)"
           id="path868" /><path
           fill="none"
           stroke-width="0.72"
           stroke-linecap="round"
           stroke-linejoin="round"
           stroke="#000000"
           stroke-opacity="1"
           stroke-miterlimit="10"
           d="M 1.888867,-0.00106748 C 1.890523,1.04221 1.042962,1.888657 -3.15572e-4,1.890313"
           transform="matrix(-0.9961,-0.08828,-0.08828,0.9961,179.19,58.91)"
           id="path870" /><path
           fill="none"
           stroke-width="0.72"
           stroke-linecap="round"
           stroke-linejoin="round"
           stroke="#000000"
           stroke-opacity="1"
           stroke-miterlimit="10"
           d="M 179.10156,151.37891 193.5,150.12109"
           transform="matrix(1,0,0,-1,0,212)"
           id="path872" /><path
           fill="none"
           stroke-width="0.72"
           stroke-linecap="round"
           stroke-linejoin="round"
           stroke="#000000"
           stroke-opacity="1"
           stroke-miterlimit="10"
           d="M 1.888274,-0.00124418 C 1.889825,1.042035 1.042178,1.888398 -0.00110047,1.889949"
           transform="matrix(-0.08838,0.99609,0.99609,0.08838,193.59,60.17)"
           id="path874" /><path
           fill="none"
           stroke-width="0.72"
           stroke-linecap="round"
           stroke-linejoin="round"
           stroke="#000000"
           stroke-opacity="1"
           stroke-miterlimit="10"
           d="m 195.48047,151.73828 1.25781,14.40234"
           transform="matrix(1,0,0,-1,0,212)"
           id="path876" /><path
           fill="none"
           stroke-width="0.72"
           stroke-linecap="round"
           stroke-linejoin="round"
           stroke="#000000"
           stroke-opacity="1"
           stroke-miterlimit="10"
           d="m 201.23828,51.75 c 0,7.804688 -6.32422,14.128906 -14.12891,14.128906 -7.80078,0 -14.1289,-6.324218 -14.1289,-14.128906 0,-7.804687 6.32422,-14.128906 14.1289,-14.128906 7.80469,0 14.12891,6.324219 14.12891,14.128906"
           transform="matrix(1,0,0,-1,0,212)"
           id="path878" /><path
           fill="none"
           stroke-width="0.72"
           stroke-linecap="round"
           stroke-linejoin="round"
           stroke="#000000"
           stroke-opacity="1"
           stroke-miterlimit="10"
           d="m 193.14062,87.75 c 0,3.332031 -2.69921,6.03125 -6.03125,6.03125 -3.32812,0 -6.02734,-2.699219 -6.03125,-6.03125 0,-3.328125 2.70313,-6.03125 6.03125,-6.03125 3.33204,0 6.03125,2.699219 6.03125,6.03125"
           transform="matrix(1,0,0,-1,0,212)"
           id="path880" /><path
           fill="none"
           stroke-width="0.72"
           stroke-linecap="round"
           stroke-linejoin="round"
           stroke="#000000"
           stroke-opacity="1"
           stroke-miterlimit="10"
           d="m 193.14062,123.75 c 0,3.33203 -2.69921,6.03125 -6.03125,6.03125 -3.32812,0 -6.02734,-2.69922 -6.03125,-6.03125 0,-3.32812 2.70313,-6.03125 6.03125,-6.03125 3.33204,0 6.03125,2.69922 6.03125,6.03125"
           transform="matrix(1,0,0,-1,0,212)"
           id="path882" /><path
           fill="none"
           stroke-width="0.72"
           stroke-linecap="round"
           stroke-linejoin="round"
           stroke="#000000"
           stroke-opacity="1"
           stroke-miterlimit="10"
           d="m 229.14062,159.75 c 0,3.33203 -2.69921,6.03125 -6.03125,6.03125 -3.32812,0 -6.02734,-2.69922 -6.03125,-6.03125 0,-3.32813 2.70313,-6.03125 6.03125,-6.03125 3.33204,0 6.03125,2.69922 6.03125,6.03125"
           transform="matrix(1,0,0,-1,0,212)"
           id="path884" /><path
           fill="none"
           stroke-width="0.72"
           stroke-linecap="round"
           stroke-linejoin="round"
           stroke="#000000"
           stroke-opacity="1"
           stroke-miterlimit="10"
           d="m 193.14062,195.75 c 0,3.33203 -2.69921,6.03125 -6.03125,6.03125 -3.32812,0 -6.02734,-2.69922 -6.03125,-6.03125 0,-3.32813 2.70313,-6.03125 6.03125,-6.03125 3.33204,0 6.03125,2.69922 6.03125,6.03125"
           transform="matrix(1,0,0,-1,0,212)"
           id="path886" /><path
           fill="none"
           stroke-width="0.72"
           stroke-linecap="round"
           stroke-linejoin="round"
           stroke="#000000"
           stroke-opacity="1"
           stroke-miterlimit="10"
           d="m 147.05859,177.75 c 0,3.42969 -2.77734,6.21094 -6.20703,6.21094 -3.42969,0 -6.21094,-2.78125 -6.21094,-6.21094 0,-3.42969 2.77735,-6.21094 6.20704,-6.21094 3.42968,0 6.21093,2.78125 6.21093,6.21094"
           transform="matrix(1,0,0,-1,0,212)"
           id="path888" /><path
           fill="none"
           stroke-width="0.72"
           stroke-linecap="round"
           stroke-linejoin="round"
           stroke="#000000"
           stroke-opacity="1"
           stroke-miterlimit="10"
           d="m 147.05859,141.75 c 0,3.42969 -2.77734,6.21094 -6.20703,6.21094 -3.42969,0 -6.21094,-2.78125 -6.21094,-6.21094 0,-3.42969 2.77735,-6.21094 6.20704,-6.21094 3.42968,0 6.21093,2.78125 6.21093,6.21094"
           transform="matrix(1,0,0,-1,0,212)"
           id="path890" /><path
           fill="none"
           stroke-width="0.72"
           stroke-linecap="round"
           stroke-linejoin="round"
           stroke="#000000"
           stroke-opacity="1"
           stroke-miterlimit="10"
           d="m 263.51953,136.71094 c 0,3.32812 -2.69922,6.02734 -6.03125,6.02734 -3.32812,0 -6.02734,-2.69922 -6.02734,-6.02734 0,-3.33203 2.69922,-6.03125 6.02734,-6.03125 3.33203,0 6.03125,2.69922 6.03125,6.03125"
           transform="matrix(1,0,0,-1,0,212)"
           id="path892" /><path
           fill="none"
           stroke-width="0.72"
           stroke-linecap="round"
           stroke-linejoin="round"
           stroke="#000000"
           stroke-opacity="1"
           stroke-miterlimit="10"
           d="m 193.14062,15.75 c 0,3.332031 -2.69921,6.03125 -6.03125,6.03125 -3.32812,0 -6.02734,-2.699219 -6.03125,-6.03125 0,-3.328125 2.70313,-6.03125 6.03125,-6.03125 3.33204,0 6.03125,2.699219 6.03125,6.03125"
           transform="matrix(1,0,0,-1,0,212)"
           id="path894" /><path
           fill="none"
           stroke-width="0.72"
           stroke-linecap="round"
           stroke-linejoin="round"
           stroke="#000000"
           stroke-opacity="1"
           stroke-miterlimit="10"
           d="m 197.28125,205.92187 71.45703,-54.90234"
           transform="matrix(1,0,0,-1,0,212)"
           id="path896" /><path
           fill="none"
           stroke-width="0.72"
           stroke-linecap="round"
           stroke-linejoin="round"
           stroke="#000000"
           stroke-opacity="1"
           stroke-miterlimit="10"
           d="m 181.80078,209.16016 4.14063,1.07812 4.13671,-0.17969 3.78125,-1.79687 3.42188,-2.33985 -3.42188,2.33985"
           transform="matrix(1,0,0,-1,0,212)"
           id="path898" /><path
           fill="none"
           stroke-width="0.72"
           stroke-linecap="round"
           stroke-linejoin="round"
           stroke="#000000"
           stroke-opacity="1"
           stroke-miterlimit="10"
           d="m 268.73828,151.01953 4.32031,-3.59766 3.0625,-4.14062 1.07813,-4.85938 -1.07813,-5.40234 -5.22265,-10.80078 -5.57813,-9"
           transform="matrix(1,0,0,-1,0,212)"
           id="path900" /></g></g></g></svg>
