<?xml version="1.0" encoding="UTF-8" standalone="no"?>
<!-- Created with Inkscape (http://www.inkscape.org/) -->

<svg
   width="210mm"
   height="297mm"
   viewBox="0 0 210 297"
   version="1.1"
   id="svg5"
   xml:space="preserve"
   inkscape:export-filename="1x - white - gear-interface.svg"
   inkscape:export-xdpi="96"
   inkscape:export-ydpi="96"
   xmlns:inkscape="http://www.inkscape.org/namespaces/inkscape"
   xmlns:sodipodi="http://sodipodi.sourceforge.net/DTD/sodipodi-0.dtd"
   xmlns="http://www.w3.org/2000/svg"
   xmlns:svg="http://www.w3.org/2000/svg"><sodipodi:namedview
     id="namedview7"
     pagecolor="#ffffff"
     bordercolor="#000000"
     borderopacity="0.25"
     inkscape:showpageshadow="2"
     inkscape:pageopacity="0.0"
     inkscape:pagecheckerboard="0"
     inkscape:deskcolor="#d1d1d1"
     inkscape:document-units="mm"
     showgrid="false" /><defs
     id="defs2" /><g
     inkscape:label="Layer 1"
     inkscape:groupmode="layer"
     id="layer1"><g
       id="g466"
       transform="matrix(0.35277778,0,0,0.35277778,-23.643387,-3.5732475)"><path
         fill="none"
         stroke-width="0.18"
         stroke-linecap="round"
         stroke-linejoin="round"
         stroke="#ffffff"
         stroke-opacity="1"
         stroke-miterlimit="10"
         d="M 295.92187,24.660156 H 100.44141 295.92187 V 194.03906 H 100.44141 V 24.660156 194.03906 H 295.92187 V 24.660156 H 100.44141 295.92187"
         transform="matrix(1,0,0,-1,0,249)"
         id="path379" /><path
         fill="none"
         stroke-width="0.72"
         stroke-linecap="round"
         stroke-linejoin="round"
         stroke="#000000"
         stroke-opacity="1"
         stroke-miterlimit="10"
         d="m 214.37891,115.19922 h -90"
         transform="matrix(1,0,0,-1,0,249)"
         id="path381" /><path
         fill="none"
         stroke-width="0.72"
         stroke-linecap="round"
         stroke-linejoin="round"
         stroke="#000000"
         stroke-opacity="1"
         stroke-miterlimit="10"
         d="M 5.849219,9.375e-4 C 5.849219,3.231406 3.232031,5.848594 0.0015625,5.848594 -3.228906,5.848594 -5.85,3.231406 -5.85,9.375e-4"
         transform="matrix(0,-1,-1,0,124.29,139.65)"
         id="path383" /><path
         fill="none"
         stroke-width="0.72"
         stroke-linecap="round"
         stroke-linejoin="round"
         stroke="#000000"
         stroke-opacity="1"
         stroke-miterlimit="10"
         d="m 124.37891,103.5 h 90"
         transform="matrix(1,0,0,-1,0,249)"
         id="path385" /><path
         fill="none"
         stroke-width="0.72"
         stroke-linecap="round"
         stroke-linejoin="round"
         stroke="#000000"
         stroke-opacity="1"
         stroke-miterlimit="10"
         d="M 5.85,-3.625e-4 C 5.849677,3.230106 3.232227,5.850938 0.00175869,5.850615 -3.232616,5.850292 -5.849542,3.228936 -5.849219,-0.00153242"
         transform="matrix(-1e-4,1,1,1e-4,214.29001,139.65)"
         id="path387" /><path
         fill="none"
         stroke-width="0.72"
         stroke-linecap="round"
         stroke-linejoin="round"
         stroke="#000000"
         stroke-opacity="1"
         stroke-miterlimit="10"
         d="m 268.37891,157.5 h -90"
         transform="matrix(1,0,0,-1,0,249)"
         id="path389" /><path
         fill="none"
         stroke-width="0.72"
         stroke-linecap="round"
         stroke-linejoin="round"
         stroke="#000000"
         stroke-opacity="1"
         stroke-miterlimit="10"
         d="m 5.849209,9.475e-4 c 0,3.2304685 -2.617188,5.8476565 -5.8476565,5.8476565 -3.2343755,0 -5.8515625,-2.617188 -5.8515625,-5.8476565"
         transform="matrix(0,-1,-1,0,178.29001,85.64999)"
         id="path391" /><path
         fill="none"
         stroke-width="0.72"
         stroke-linecap="round"
         stroke-linejoin="round"
         stroke="#000000"
         stroke-opacity="1"
         stroke-miterlimit="10"
         d="m 178.37891,169.19922 h 90"
         transform="matrix(1,0,0,-1,0,249)"
         id="path393" /><path
         fill="none"
         stroke-width="0.72"
         stroke-linecap="round"
         stroke-linejoin="round"
         stroke="#000000"
         stroke-opacity="1"
         stroke-miterlimit="10"
         d="M 5.85001,-3.62499e-4 C 5.849687,3.230106 3.232237,5.850938 0.00176869,5.850615 -3.232606,5.850292 -5.849532,3.228936 -5.849209,-0.00153242"
         transform="matrix(-1e-4,1,1,1e-4,268.29001,85.64999)"
         id="path395" /><path
         fill="none"
         stroke-width="0.72"
         stroke-linecap="round"
         stroke-linejoin="round"
         stroke="#000000"
         stroke-opacity="1"
         stroke-miterlimit="10"
         d="m 268.37891,49.5 h -90"
         transform="matrix(1,0,0,-1,0,249)"
         id="path397" /><path
         fill="none"
         stroke-width="0.72"
         stroke-linecap="round"
         stroke-linejoin="round"
         stroke="#000000"
         stroke-opacity="1"
         stroke-miterlimit="10"
         d="M 5.849219,9.475e-4 C 5.849219,3.231416 3.232031,5.848604 0.0015625,5.848604 -3.232812,5.848604 -5.85,3.231416 -5.85,9.475e-4"
         transform="matrix(0,-1,-1,0,178.29001,193.65)"
         id="path399" /><path
         fill="none"
         stroke-width="0.72"
         stroke-linecap="round"
         stroke-linejoin="round"
         stroke="#000000"
         stroke-opacity="1"
         stroke-miterlimit="10"
         d="m 178.37891,61.199219 h 90"
         transform="matrix(1,0,0,-1,0,249)"
         id="path401" /><path
         fill="none"
         stroke-width="0.72"
         stroke-linecap="round"
         stroke-linejoin="round"
         stroke="#000000"
         stroke-opacity="1"
         stroke-miterlimit="10"
         d="M 5.85,-3.625e-4 C 5.849677,3.230106 3.232227,5.850938 0.00175869,5.850615 -3.232616,5.850292 -5.849542,3.228936 -5.849219,-0.00153242"
         transform="matrix(-1e-4,1,1,1e-4,268.29001,193.65)"
         id="path403" /><path
         fill="none"
         stroke-width="0.72"
         stroke-linecap="round"
         stroke-linejoin="round"
         stroke="#000000"
         stroke-opacity="1"
         stroke-miterlimit="10"
         d="m 278.28125,104.21875 -11.33984,9"
         transform="matrix(1,0,0,-1,0,249)"
         id="path405" /><path
         fill="none"
         stroke-width="0.72"
         stroke-linecap="round"
         stroke-linejoin="round"
         stroke="#000000"
         stroke-opacity="1"
         stroke-miterlimit="10"
         d="M 1.708185,-5.48635e-5 C 1.708684,0.945548 0.945345,1.711631 -2.57678e-4,1.71213"
         transform="matrix(0.61923,-0.78521,-0.78521,-0.61923,265.95001,137.31)"
         id="path407" /><path
         fill="none"
         stroke-width="0.72"
         stroke-linecap="round"
         stroke-linejoin="round"
         stroke="#000000"
         stroke-opacity="1"
         stroke-miterlimit="10"
         d="m 264.42187,112.85938 -8.82031,-11.33985"
         transform="matrix(1,0,0,-1,0,249)"
         id="path409" /><path
         fill="none"
         stroke-width="0.72"
         stroke-linecap="round"
         stroke-linejoin="round"
         stroke="#000000"
         stroke-opacity="1"
         stroke-miterlimit="10"
         d="M 1.712033,3.80367e-4 C 1.709465,0.943564 0.946126,1.709647 5.23421e-4,1.710146"
         transform="matrix(-0.78521,-0.61923,-0.61923,0.78521,256.95001,148.47)"
         id="path411" /><path
         fill="none"
         stroke-width="0.72"
         stroke-linecap="round"
         stroke-linejoin="round"
         stroke="#000000"
         stroke-opacity="1"
         stroke-miterlimit="10"
         d="m 255.78125,99 11.33984,-8.820312"
         transform="matrix(1,0,0,-1,0,249)"
         id="path413" /><path
         fill="none"
         stroke-width="0.72"
         stroke-linecap="round"
         stroke-linejoin="round"
         stroke="#000000"
         stroke-opacity="1"
         stroke-miterlimit="10"
         d="M 1.710225,-6.22553e-4 C 1.710724,0.94498 0.944317,1.708644 -0.00128528,1.709144"
         transform="matrix(-0.61923,0.78521,0.78521,0.61923,268.28998,157.47)"
         id="path415" /><path
         fill="none"
         stroke-width="0.72"
         stroke-linecap="round"
         stroke-linejoin="round"
         stroke="#000000"
         stroke-opacity="1"
         stroke-miterlimit="10"
         d="m 269.64062,90.359375 9,11.339845"
         transform="matrix(1,0,0,-1,0,249)"
         id="path417" /><path
         fill="none"
         stroke-width="0.72"
         stroke-linecap="round"
         stroke-linejoin="round"
         stroke="#000000"
         stroke-opacity="1"
         stroke-miterlimit="10"
         d="M 1.70924,0.00116259 C 1.712158,0.943698 0.943333,1.710429 1.4924e-4,1.707861"
         transform="matrix(0.78521,0.61923,0.61923,-0.78521,277.28998,146.13)"
         id="path419" /><path
         fill="none"
         stroke-width="0.72"
         stroke-linecap="round"
         stroke-linejoin="round"
         stroke="#000000"
         stroke-opacity="1"
         stroke-miterlimit="10"
         d="m 294.12109,109.26172 -0.17968,-8.10156 -0.17969,-7.199222 -1.08203,-12.78125 -1.44141,-10.441407 -1.79687,-8.457031 -2.16016,-6.660156 -2.16016,-5.402344 -2.33984,-3.957031 -2.33984,-3.242188 -4.67969,-4.140625 -4.14063,-2.519531 -7.19922,-2.519531 -6.66015,-0.898438 -7.5625,-0.179687 h -76.67969 l -5.03906,1.078125 -3.0586,1.800781 -1.98046,1.621094 -2.51954,2.160156 -3.24218,2.878906 -3.60157,3.417969 -4.3164,4.140625 -4.86328,5.039063 -5.39844,5.402343 -5.76172,6.121094 -12.23828,13.679688 -5.76172,7.199218 -4.67969,7.378907 -3.41796,7.378902 -1.26172,7.20313 1.26172,7.37891 3.41796,7.3789 4.67969,7.37891 5.76172,7.20312 12.23828,13.67969 5.76172,6.11719 5.39844,5.40234 4.86328,5.03906 4.3164,4.14063 3.60157,3.41797 3.24218,2.88281 2.51954,2.16016 1.98046,1.61718 3.0586,1.80078 5.03906,1.08204 h 76.67969 l 7.5625,-0.17969 6.66015,-0.90235 7.19922,-2.51953 4.14063,-2.51953 4.67969,-4.14062 2.33984,-3.23828 2.33984,-3.96094 2.16016,-5.40235 2.16016,-6.65625 1.79687,-8.46093 1.44141,-10.44141 1.08203,-12.78125 0.17969,-7.3789 0.17968,-8.09766"
         transform="matrix(1,0,0,-1,0,249)"
         id="path423" /><path
         fill="none"
         stroke-width="0.72"
         stroke-linecap="round"
         stroke-linejoin="round"
         stroke="#000000"
         stroke-opacity="1"
         stroke-miterlimit="10"
         d="m 166.14062,54.089844 c 0,3.230469 -2.62109,5.851562 -5.85156,5.851562 -3.23047,0 -5.84765,-2.621093 -5.84765,-5.851562 0,-3.230469 2.61718,-5.851563 5.84765,-5.851563 3.23047,0 5.85156,2.621094 5.85156,5.851563"
         transform="matrix(1,0,0,-1,0,249)"
         id="path425" /><path
         fill="none"
         stroke-width="0.72"
         stroke-linecap="round"
         stroke-linejoin="round"
         stroke="#000000"
         stroke-opacity="1"
         stroke-miterlimit="10"
         d="m 137.51953,84.871094 c 0,3.230469 -2.61719,5.847656 -5.84766,5.847656 -3.23437,0 -5.85156,-2.617187 -5.85156,-5.847656 0,-3.230469 2.61719,-5.851563 5.84766,-5.851563 3.23047,0 5.85156,2.617188 5.85156,5.851563"
         transform="matrix(1,0,0,-1,0,249)"
         id="path427" /><path
         fill="none"
         stroke-width="0.72"
         stroke-linecap="round"
         stroke-linejoin="round"
         stroke="#000000"
         stroke-opacity="1"
         stroke-miterlimit="10"
         d="m 137.51953,133.82812 c 0,3.23438 -2.61719,5.85157 -5.84766,5.85157 -3.23437,0 -5.85156,-2.61719 -5.85156,-5.84766 0,-3.23437 2.61719,-5.85156 5.84766,-5.85156 3.23047,0 5.85156,2.61719 5.85156,5.84765"
         transform="matrix(1,0,0,-1,0,249)"
         id="path429" /><path
         fill="none"
         stroke-width="0.72"
         stroke-linecap="round"
         stroke-linejoin="round"
         stroke="#000000"
         stroke-opacity="1"
         stroke-miterlimit="10"
         d="m 166.14062,164.60937 c 0,3.23047 -2.62109,5.85157 -5.85156,5.85157 -3.23047,0 -5.84765,-2.6211 -5.84765,-5.85157 0,-3.23046 2.61718,-5.84765 5.84765,-5.84765 3.23047,0 5.85156,2.61719 5.85156,5.84765"
         transform="matrix(1,0,0,-1,0,249)"
         id="path431" /></g></g></svg>
