<?xml version="1.0" encoding="UTF-8" standalone="no"?>
<!-- Created with Inkscape (http://www.inkscape.org/) -->

<svg
   width="210mm"
   height="297mm"
   viewBox="0 0 210 297"
   version="1.1"
   id="svg5"
   xml:space="preserve"
   inkscape:export-filename="2x - white - first-stage.svg"
   inkscape:export-xdpi="96"
   inkscape:export-ydpi="96"
   xmlns:inkscape="http://www.inkscape.org/namespaces/inkscape"
   xmlns:sodipodi="http://sodipodi.sourceforge.net/DTD/sodipodi-0.dtd"
   xmlns="http://www.w3.org/2000/svg"
   xmlns:svg="http://www.w3.org/2000/svg"><sodipodi:namedview
     id="namedview7"
     pagecolor="#ffffff"
     bordercolor="#000000"
     borderopacity="0.25"
     inkscape:showpageshadow="2"
     inkscape:pageopacity="0.0"
     inkscape:pagecheckerboard="0"
     inkscape:deskcolor="#d1d1d1"
     inkscape:document-units="mm"
     showgrid="false" /><defs
     id="defs2" /><g
     inkscape:label="Layer 1"
     inkscape:groupmode="layer"
     id="layer1"><g
       id="g466"
       transform="matrix(0.35277778,0,0,0.35277778,-23.643387,-3.5732475)"><g
         id="g1124"
         transform="translate(-211.33154,-34.698881)"><path
           fill="none"
           stroke-width="0.72"
           stroke-linecap="round"
           stroke-linejoin="round"
           stroke="#000000"
           stroke-opacity="1"
           stroke-miterlimit="10"
           d="M 401.57812,362.69922 V 197.10156"
           transform="matrix(1,0,0,-1,0,464)"
           id="path1048" /><path
           fill="none"
           stroke-width="0.72"
           stroke-linecap="round"
           stroke-linejoin="round"
           stroke="#000000"
           stroke-opacity="1"
           stroke-miterlimit="10"
           d="M 6.030791,-0.00172875 C 6.030791,3.330303 3.331572,6.029521 -4.5875e-4,6.029521 -3.328584,6.029521 -6.031709,3.330303 -6.031709,-0.00172875"
           transform="matrix(-1,0,0,1,395.73001,266.99001)"
           id="path1050" /><path
           fill="none"
           stroke-width="0.72"
           stroke-linecap="round"
           stroke-linejoin="round"
           stroke="#000000"
           stroke-opacity="1"
           stroke-miterlimit="10"
           d="M 389.69922,197.10156 V 362.69922"
           transform="matrix(1,0,0,-1,0,464)"
           id="path1052" /><path
           fill="none"
           stroke-width="0.72"
           stroke-linecap="round"
           stroke-linejoin="round"
           stroke="#000000"
           stroke-opacity="1"
           stroke-miterlimit="10"
           d="m 401.76172,362.60937 c 0,3.33204 -2.70313,6.03125 -6.03125,6.03125 -3.33203,0 -6.03125,-2.69921 -6.03125,-6.03125"
           transform="matrix(1,0,0,-1,0,464)"
           id="path1054" /><path
           fill="none"
           stroke-width="0.72"
           stroke-linecap="round"
           stroke-linejoin="round"
           stroke="#000000"
           stroke-opacity="1"
           stroke-miterlimit="10"
           d="M 329.57812,362.69922 V 197.10156"
           transform="matrix(1,0,0,-1,0,464)"
           id="path1056" /><path
           fill="none"
           stroke-width="0.72"
           stroke-linecap="round"
           stroke-linejoin="round"
           stroke="#000000"
           stroke-opacity="1"
           stroke-miterlimit="10"
           d="M 6.030791,-0.00172875 C 6.030791,3.330303 3.331572,6.029521 -4.5875e-4,6.029521 -3.328584,6.029521 -6.031709,3.330303 -6.031709,-0.00172875"
           transform="matrix(-1,0,0,1,323.73001,266.99001)"
           id="path1058" /><path
           fill="none"
           stroke-width="0.72"
           stroke-linecap="round"
           stroke-linejoin="round"
           stroke="#000000"
           stroke-opacity="1"
           stroke-miterlimit="10"
           d="M 317.69922,197.10156 V 362.69922"
           transform="matrix(1,0,0,-1,0,464)"
           id="path1060" /><path
           fill="none"
           stroke-width="0.72"
           stroke-linecap="round"
           stroke-linejoin="round"
           stroke="#000000"
           stroke-opacity="1"
           stroke-miterlimit="10"
           d="m 329.76172,362.60937 c 0,3.33204 -2.70313,6.03125 -6.03125,6.03125 -3.33203,0 -6.03125,-2.69921 -6.03125,-6.03125"
           transform="matrix(1,0,0,-1,0,464)"
           id="path1062" /><path
           fill="none"
           stroke-width="0.72"
           stroke-linecap="round"
           stroke-linejoin="round"
           stroke="#000000"
           stroke-opacity="1"
           stroke-miterlimit="10"
           d="M 377.64062,362.69922 V 197.10156"
           transform="matrix(1,0,0,-1,0,464)"
           id="path1064" /><path
           fill="none"
           stroke-width="0.72"
           stroke-linecap="round"
           stroke-linejoin="round"
           stroke="#000000"
           stroke-opacity="1"
           stroke-miterlimit="10"
           d="M 18.089385,1.00188e-4 C 18.088386,9.992288 9.98992,18.089134 0.00163869,18.088135 -9.990549,18.091042 -18.091302,9.992576 -18.090303,3.8847e-4"
           transform="matrix(-1,-1e-4,-1e-4,1,359.73001,266.98999)"
           id="path1066" /><path
           fill="none"
           stroke-width="0.72"
           stroke-linecap="round"
           stroke-linejoin="round"
           stroke="#000000"
           stroke-opacity="1"
           stroke-miterlimit="10"
           d="M 341.64062,197.10156 V 362.69922"
           transform="matrix(1,0,0,-1,0,464)"
           id="path1068" /><path
           fill="none"
           stroke-width="0.72"
           stroke-linecap="round"
           stroke-linejoin="round"
           stroke="#000000"
           stroke-opacity="1"
           stroke-miterlimit="10"
           d="m 377.82031,362.60937 c 0,9.99219 -8.09765,18.08985 -18.08984,18.08985 -9.99219,0 -18.08985,-8.09766 -18.08985,-18.08985"
           transform="matrix(1,0,0,-1,0,464)"
           id="path1070" /><path
           fill="none"
           stroke-width="0.72"
           stroke-linecap="round"
           stroke-linejoin="round"
           stroke="#000000"
           stroke-opacity="1"
           stroke-miterlimit="10"
           d="m 287.28125,239.76172 0.35937,-10.80078 0.89844,-9.72266 1.44141,-8.81641 1.98047,-7.74218 2.33984,-6.66016 2.69922,-6.12109 3.05859,-5.21875 3.24219,-4.5 7.19922,-7.19922 7.73828,-5.03906 7.92188,-3.60157 8.10156,-2.16015 15.66015,-1.98047 h 14.39844 l 13.14063,0.53906 12.41797,0.54297 23.9414,-0.17969 23.94141,-2.16015 11.51953,-1.26172 10.79687,-0.35938 9.72266,0.89844 8.27734,2.33984 6.66016,4.14063 4.86328,5.76172 3.59766,7.19922 2.16015,8.10156 1.98047,17.45703 V 220.5 l -0.71875,16.92187 -0.72265,18.35938 -0.53907,10.25781 -0.71875,10.98047 -2.8789,23.03906 -2.70313,11.51953 -3.77734,10.98047 -5.04297,9.90235 -6.11719,9 -7.38281,7.55859 -7.91797,6.48047 -8.28125,5.39844 -8.09765,4.5 -7.38282,3.96093 -6.48047,3.42188 -5.57812,2.87891 -4.85938,2.69921 -8.46093,4.5 -4.67969,1.6211 -5.39844,1.07812 -6.30078,0.90235 -7.37891,0.35937 -8.46093,0.17969 -9.35938,-0.17969 -20.52344,-0.89844 -10.61718,-1.62109 -10.44141,-2.87891 -5.21875,-2.34375 -4.67969,-2.8789 -4.67968,-3.96094 -4.32032,-4.67969 -3.96093,-5.9375 -3.42188,-7.19922 -3.05859,-8.28125 -2.69922,-9.53906 -2.16016,-10.80078 -1.80078,-11.69922 -2.16016,-25.20312 -0.89843,-25.91797 -0.17969,-12.24219 v -10.97656"
           transform="matrix(1,0,0,-1,0,464)"
           id="path1072" /><path
           fill="none"
           stroke-width="0.72"
           stroke-linecap="round"
           stroke-linejoin="round"
           stroke="#000000"
           stroke-opacity="1"
           stroke-miterlimit="10"
           d="m 423.89844,346.05078 c 0,3.23047 -2.61719,5.84766 -5.84766,5.84766 -3.23047,0 -5.85156,-2.61719 -5.85156,-5.84766 0,-3.23047 2.62109,-5.85156 5.85156,-5.85156 3.23047,0 5.84766,2.62109 5.84766,5.85156"
           transform="matrix(1,0,0,-1,0,464)"
           id="path1074" /><path
           fill="none"
           stroke-width="0.72"
           stroke-linecap="round"
           stroke-linejoin="round"
           stroke="#000000"
           stroke-opacity="1"
           stroke-miterlimit="10"
           d="m 407.51953,173.60937 c 0,3.23047 -2.61719,5.85157 -5.84766,5.85157 -3.23437,0 -5.85156,-2.6211 -5.85156,-5.85157 0,-3.23046 2.61719,-5.84765 5.84766,-5.84765 3.23047,0 5.85156,2.61719 5.85156,5.84765"
           transform="matrix(1,0,0,-1,0,464)"
           id="path1076" /><path
           fill="none"
           stroke-width="0.72"
           stroke-linecap="round"
           stroke-linejoin="round"
           stroke="#000000"
           stroke-opacity="1"
           stroke-miterlimit="10"
           d="m 308.33984,318.32812 c 0,3.23438 -2.61718,5.85157 -5.85156,5.85157 -3.23047,0 -5.84766,-2.61719 -5.84766,-5.84766 0,-3.23437 2.61719,-5.85156 5.84766,-5.85156 3.23047,0 5.85156,2.61719 5.85156,5.84765"
           transform="matrix(1,0,0,-1,0,464)"
           id="path1078" /><path
           fill="none"
           stroke-width="0.72"
           stroke-linecap="round"
           stroke-linejoin="round"
           stroke="#000000"
           stroke-opacity="1"
           stroke-miterlimit="10"
           d="m 308.33984,227.96875 c 0,3.23047 -2.61718,5.85156 -5.85156,5.85156 -3.23047,0 -5.84766,-2.62109 -5.84766,-5.85156 0,-3.23047 2.61719,-5.84766 5.84766,-5.84766 3.23047,0 5.85156,2.61719 5.85156,5.84766"
           transform="matrix(1,0,0,-1,0,464)"
           id="path1080" /><path
           fill="none"
           stroke-width="0.72"
           stroke-linecap="round"
           stroke-linejoin="round"
           stroke="#000000"
           stroke-opacity="1"
           stroke-miterlimit="10"
           d="m 337.32031,176.12891 c 0,3.23046 -2.62109,5.85156 -5.85156,5.85156 -3.23047,0 -5.84766,-2.6211 -5.84766,-5.85156 0,-3.23047 2.61719,-5.84766 5.84766,-5.84766 3.23047,0 5.85156,2.61719 5.85156,5.84766"
           transform="matrix(1,0,0,-1,0,464)"
           id="path1082" /><path
           fill="none"
           stroke-width="0.72"
           stroke-linecap="round"
           stroke-linejoin="round"
           stroke="#000000"
           stroke-opacity="1"
           stroke-miterlimit="10"
           d="m 455.57812,340.10937 c 0,3.23047 -2.61718,5.85157 -5.84765,5.85157 -3.23047,0 -5.85156,-2.6211 -5.85156,-5.85157 0,-3.23046 2.62109,-5.84765 5.85156,-5.84765 3.23047,0 5.84765,2.61719 5.84765,5.84765"
           transform="matrix(1,0,0,-1,0,464)"
           id="path1084" /><path
           fill="none"
           stroke-width="0.72"
           stroke-linecap="round"
           stroke-linejoin="round"
           stroke="#000000"
           stroke-opacity="1"
           stroke-miterlimit="10"
           d="m 473.76172,281.60937 c 0,3.33204 -2.70313,6.03125 -6.03125,6.03125 -3.33203,0 -6.03125,-2.69921 -6.03125,-6.03125 0,-3.32812 2.69922,-6.02734 6.03125,-6.03125 3.32812,0 6.02734,2.69922 6.03125,6.03125"
           transform="matrix(1,0,0,-1,0,464)"
           id="path1086" /><path
           fill="none"
           stroke-width="0.72"
           stroke-linecap="round"
           stroke-linejoin="round"
           stroke="#000000"
           stroke-opacity="1"
           stroke-miterlimit="10"
           d="m 473.76172,173.60937 c 0,3.33204 -2.70313,6.03125 -6.03125,6.03125 -3.33203,0 -6.03125,-2.69921 -6.03125,-6.03125 0,-3.32812 2.69922,-6.02734 6.03125,-6.03125 3.32812,0 6.02734,2.69922 6.03125,6.03125"
           transform="matrix(1,0,0,-1,0,464)"
           id="path1088" /><path
           fill="none"
           stroke-width="0.72"
           stroke-linecap="round"
           stroke-linejoin="round"
           stroke="#000000"
           stroke-opacity="1"
           stroke-miterlimit="10"
           d="m 473.76172,209.60937 c 0,3.33204 -2.70313,6.03125 -6.03125,6.03125 -3.33203,0 -6.03125,-2.69921 -6.03125,-6.03125 0,-3.32812 2.69922,-6.02734 6.03125,-6.03125 3.32812,0 6.02734,2.69922 6.03125,6.03125"
           transform="matrix(1,0,0,-1,0,464)"
           id="path1090" /><path
           fill="none"
           stroke-width="0.72"
           stroke-linecap="round"
           stroke-linejoin="round"
           stroke="#000000"
           stroke-opacity="1"
           stroke-miterlimit="10"
           d="m 473.76172,245.60937 c 0,3.33204 -2.70313,6.03125 -6.03125,6.03125 -3.33203,0 -6.03125,-2.69921 -6.03125,-6.03125 0,-3.32812 2.69922,-6.02734 6.03125,-6.03125 3.32812,0 6.02734,2.69922 6.03125,6.03125"
           transform="matrix(1,0,0,-1,0,464)"
           id="path1092" /></g></g></g></svg>
